# xmcd
#
# Track frame offsets:
#	150
#	18750
#	32949
#	46722
#	63085
#	82105
#	98748
#	116677
#	135724
#	152896
#	170638
#	189557
#	209206
#	225656
#	242182
#	258042
#
# Disc length: 3684 seconds
#
# Revision: 1
# Processed by: cddbd v1.5.1PL0 Copyright (c) Steve Scherf et al.
# Submitted via: audiograbber 1.83.01
#
DISCID=d80e6210
DTITLE=Various Artist - Country Party Songs
DYEAR=1900
DGENRE=Country
TTITLE0=Rascal Flatts - Mayberry
TTITLE1=Sherie Austin - Son of A Preacher Man
TTITLE2=Brooks and Dunn - That's What She Gets For Loving Me
TTITLE3=Buddy Jewell - Sweet Georgia Comfort
TTITLE4=George Strait - Desperately
TTITLE5=Gretchen Wilson - Redneck Woman
TTITLE6=Sara Evans - Suds In The Bucket
TTITLE7=Keith Urban - You'll Think Of Me
TTITLE8=Kenny Chesney W/ Uncle Kracker - When The Sun Goes Down
TTITLE9=Reba McEntire - Somebody
TTITLE10=Martina McBride - This One's For The Girls
TTITLE11=Tim McGraw - Real Good Man
TTITLE12=She Daisy - Passenger Seat
TTITLE13=Terri Clark - Girls Lie Too
TTITLE14=Gretchen Wilson - Here For The Party
TTITLE15=Toby Keith - I Love This Bar
EXTD=
EXTT0=
EXTT1=
EXTT2=
EXTT3=
EXTT4=
EXTT5=
EXTT6=
EXTT7=
EXTT8=
EXTT9=
EXTT10=
EXTT11=
EXTT12=
EXTT13=
EXTT14=
EXTT15=
PLAYORDER=
